<?xml version="1.0" encoding="UTF-8"?>
<svg width="933.33" height="933.33" version="1.1" viewBox="0 0 933.33 933.33" xml:space="preserve" xmlns="http://www.w3.org/2000/svg" xmlns:cc="http://creativecommons.org/ns#" xmlns:dc="http://purl.org/dc/elements/1.1/" xmlns:rdf="http://www.w3.org/1999/02/22-rdf-syntax-ns#"><metadata><rdf:RDF><cc:Work rdf:about=""><dc:format>image/svg+xml</dc:format><dc:type rdf:resource="http://purl.org/dc/dcmitype/StillImage"/><dc:title/></cc:Work></rdf:RDF></metadata><defs><clipPath id="clipPath23"><path d="m0 700h700v-700h-700z"/></clipPath></defs><g transform="matrix(1.3333 0 0 -1.3333 0 933.33)"><g clip-path="url(#clipPath23)"><g transform="translate(500.78 350)"><path d="m0 0c0-83.273-67.506-150.78-150.78-150.78-83.273 0-150.78 67.507-150.78 150.78s67.507 150.78 150.78 150.78c83.274 0 150.78-67.507 150.78-150.78z" fill="none" stroke="#231f20" stroke-miterlimit="10" stroke-width="152"/></g><g transform="translate(417 544.34)"><path d="m0 0h-134s11.442 82.56 29.559 82.56h74.882c18.117 0 29.559-82.56 29.559-82.56" fill="#231f20"/><path d="m0 0h-134s11.442 82.56 29.559 82.56h74.882c18.117 0 29.559-82.56 29.559-82.56z" fill="none" stroke="#231f20" stroke-miterlimit="10" stroke-width="14"/></g><g transform="translate(283 153.9)"><path d="m0 0h134s-11.442-82.56-29.559-82.56h-74.882c-18.117 0-29.559 82.56-29.559 82.56" fill="#231f20"/><path d="m0 0h134s-11.442-82.56-29.559-82.56h-74.882c-18.117 0-29.559 82.56-29.559 82.56z" fill="none" stroke="#231f20" stroke-miterlimit="10" stroke-width="14"/></g><g transform="translate(147.22 417)"><path d="m0 0v-134s-82.56 11.442-82.56 29.559v74.882c0 18.117 82.56 29.559 82.56 29.559" fill="#231f20"/><path d="m0 0v-134s-82.56 11.442-82.56 29.559v74.882c0 18.117 82.56 29.559 82.56 29.559z" fill="none" stroke="#231f20" stroke-miterlimit="10" stroke-width="14"/></g><g transform="translate(557,283)"><path d="m0 0v134s82.56-11.442 82.56-29.559v-74.882c0-18.117-82.56-29.559-82.56-29.559" fill="#231f20"/><path d="m0 0v134s82.56-11.442 82.56-29.559v-74.882c0-18.117-82.56-29.559-82.56-29.559z" fill="none" stroke="#231f20" stroke-miterlimit="10" stroke-width="14"/></g><g transform="translate(541.47 447.3)"><path d="m 0,0 -94.752,94.752 c 0,0 66.469,50.289 79.28,37.478 L 37.477,79.28 C 50.288,66.469 0,0 0,0" fill="#231f20"/><path d="m 0,0 -94.752,94.752 c 0,0 66.469,50.289 79.28,37.478 L 37.477,79.28 C 50.288,66.469 0,0 0,0 Z" fill="none" stroke="#231f20" stroke-miterlimit="10" stroke-width="14"/></g><g transform="translate(259.38 542.05)"><path d="m 0,0 -94.752,-94.752 c 0,0 -50.289,66.469 -37.478,79.28 13.747,13.747 40.382,40.381 52.95,52.949 C -66.469,50.288 0,0 0,0" fill="#231f20"/><path d="m 0,0 -94.752,-94.752 c 0,0 -50.289,66.469 -37.478,79.28 13.747,13.747 40.382,40.381 52.95,52.949 C -66.469,50.288 0,0 0,0 Z" fill="none" stroke="#231f20" stroke-miterlimit="10" stroke-width="14"/></g><g transform="translate(164.63 259.43)"><path d="m 0,0 94.752,-94.752 c 0,0 -66.469,-50.289 -79.28,-37.478 -13.747,13.747 -40.381,40.382 -52.949,52.95 C -50.288,-66.469 0,0 0,0" fill="#231f20"/><path d="m0 0 94.752-94.752s-66.469-50.289-79.28-37.478c-13.747 13.747-40.381 40.382-52.949 52.95-12.811 12.811 37.477 79.28 37.477 79.28z" fill="none" stroke="#231f20" stroke-miterlimit="10" stroke-width="14"/></g><g transform="translate(446.71 164.68)"><path d="m 0,0 94.752,94.752 c 0,0 50.289,-66.469 37.478,-79.28 C 118.483,1.725 91.848,-24.909 79.28,-37.477 66.469,-50.288 0,0 0,0" fill="#231f20"/><path d="m 0,0 94.752,94.752 c 0,0 50.289,-66.469 37.478,-79.28 C 118.483,1.725 91.848,-24.909 79.28,-37.477 66.469,-50.288 0,0 0,0 Z" fill="none" stroke="#231f20" stroke-miterlimit="10" stroke-width="14"/></g></g></g></svg>
